Coordinates
version=1
nRows=29
nColumns=22
inDegrees=yes

Units are S.I. units (second, meters, Newtons, ...)
If the header above contains a line with 'inDegrees', this indicates whether rotational values are in degrees (yes) or radians (no).

endheader
time	pelvis_tilt	pelvis_list	pelvis_rotation	pelvis_tx	pelvis_ty	pelvis_tz	hip_flexion_r	hip_adduction_r	hip_rotation_r	knee_angle_r	ankle_angle_r	subtalar_angle_r	hip_flexion_l	hip_adduction_l	hip_rotation_l	knee_angle_l	ankle_angle_l	subtalar_angle_l	lumbar_extension	lumbar_bending	lumbar_rotation
      1.54000000	     -6.18257212	     -3.99799694	    -28.86776921	     -0.84802118	      0.87352994	     -0.37676043	     34.19180459	      0.71812126	      0.93906450	    -14.53981993	      5.59574574	      3.20685327	     -4.76732328	     -3.59475919	      3.34120733	    -12.66019958	     24.32186328	     -5.62986695	     -1.49513487	      4.67440987	      6.97249735
      1.55000000	     -6.13172892	     -4.01728647	    -28.79366945	     -0.84461517	      0.87255287	     -0.37462896	     34.24806017	      0.67918909	      0.85204787	    -14.05706217	      5.42929286	      3.35932515	     -5.05572194	     -3.60413833	      3.41105921	    -12.77406504	     24.63202832	     -5.64181150	     -1.51810513	      4.75193672	      6.89956171
      1.56000000	     -6.07866312	     -4.03000868	    -28.71129727	     -0.84113233	      0.87152494	     -0.37242338	     34.29448288	      0.63265066	      0.76120737	    -13.59905267	      5.25086422	      3.51134343	     -5.34377012	     -3.61109217	      3.48121299	    -12.89917165	     24.93596566	     -5.64817598	     -1.53943838	      4.81897298	      6.81805777
      1.57000000	     -6.01988565	     -4.03396058	    -28.62156813	     -0.83757693	      0.87044034	     -0.37016987	     34.33013358	      0.57511541	      0.68418444	    -13.16346685	      5.07014465	      3.66485036	     -5.63757808	     -3.60913975	      3.55819420	    -13.02587191	     25.24883101	     -5.64689437	     -1.56556754	      4.87902994	      6.73063017
      1.58000000	     -5.95752636	     -4.03390719	    -28.52863771	     -0.83393637	      0.86930309	     -0.36784031	     34.35274800	      0.51492338	      0.61236857	    -12.74808730	      4.89212542	      3.84077517	     -5.94907142	     -3.60665672	      3.63368578	    -13.13651401	     25.56753020	     -5.63694368	     -1.59468124	      4.93302665	      6.63769520
      1.59000000	     -5.88890992	     -4.03591269	    -28.43517668	     -0.83020411	      0.86811907	     -0.36543360	     34.35964285	      0.45704936	      0.54863010	    -12.35734871	      4.71936113	      4.08666623	     -6.29462513	     -3.60715919	      3.70541211	    -13.21184901	     25.89824691	     -5.61087373	     -1.63242856	      4.99004844	      6.53695626
      1.60000000	     -5.83288911	     -3.97030522	    -28.34618634	     -0.82646469	      0.86679667	     -0.36295389	     34.41500279	      0.36215636	      0.55586837	    -11.99404886	      4.56965437	      4.17271140	     -6.58458358	     -3.55295349	      3.78316997	    -13.31464033	     26.23627946	     -5.59056362	     -1.62846528	      4.97973857	      6.45233100
      1.61000000	     -5.76057863	     -3.98416991	    -28.23161493	     -0.82254111	      0.86554486	     -0.36040345	     34.35298436	      0.30988351	      0.47429330	    -11.56873544	      4.39352127	      4.52258243	     -6.97048075	     -3.57756196	      3.84314922	    -13.36013259	     26.53624373	     -5.52190185	     -1.67672820	      5.04670471	      6.34557180
      1.62000000	     -5.72034072	     -3.89254851	    -28.13324381	     -0.81864541	      0.86408817	     -0.35776968	     34.40027390	      0.20737258	      0.50143671	    -11.20662029	      4.25314761	      4.59893641	     -7.26843599	     -3.51971626	      3.91348818	    -13.42288523	     26.86476887	     -5.49128646	     -1.64715377	      5.02051572	      6.23695042
      1.63000000	     -5.66066515	     -3.87329405	    -28.00495773	     -0.81457074	      0.86270808	     -0.35507454	     34.33028673	      0.13947848	      0.43638279	    -10.77833120	      4.08791137	      4.91323348	     -7.66253861	     -3.53344830	      3.97583222	    -13.42418930	     27.14495513	     -5.38757001	     -1.67063894	      5.06276926	      6.10025517
      1.64000000	     -5.63437927	     -3.75060776	    -27.89379501	     -0.81051668	      0.86112982	     -0.35229269	     34.36486040	      0.02311231	      0.45698172	    -10.40391315	      3.98288265	      4.99256472	     -7.96706616	     -3.46584110	      4.05249378	    -13.44996226	     27.46365956	     -5.34088544	     -1.61615301	      5.01236029	      5.99126839
      1.65000000	     -5.59225498	     -3.67877161	    -27.73717136	     -0.80629295	      0.85961796	     -0.34948541	     34.30337753	     -0.08363392	      0.37645402	     -9.97537565	      3.84528812	      5.26729388	     -8.34736697	     -3.45337685	      4.14312740	    -13.41616051	     27.70554748	     -5.20515407	     -1.60125568	      5.01190603	      5.82703745
      1.66000000	     -5.57525760	     -3.54812542	    -27.58815430	     -0.80204474	      0.85797844	     -0.34658672	     34.29856966	     -0.21392537	      0.32492067	     -9.58069628	      3.76048752	      5.45519200	     -8.68220318	     -3.40275313	      4.24345792	    -13.38277698	     27.96933222	     -5.08772526	     -1.53850485	      4.96167313	      5.67770110
      1.67000000	     -5.57038058	     -3.38971958	    -27.42233124	     -0.79773512	      0.85628290	     -0.34363167	     34.29814089	     -0.36283745	      0.24588192	     -9.18151889	      3.68763428	      5.57532725	     -8.99818574	     -3.33995180	      4.36975987	    -13.34721561	     28.21183673	     -4.98973117	     -1.45564796	      4.88746376	      5.52569146
      1.68000000	     -5.57721374	     -3.22256651	    -27.23645414	     -0.79331351	      0.85455216	     -0.34061347	     34.29206770	     -0.51949021	      0.12248245	     -8.79444193	      3.64476823	      5.71937331	     -9.32538658	     -3.28432561	      4.51261066	    -13.27359089	     28.43218001	     -4.86639612	     -1.35751872	      4.81460525	      5.34003145
      1.69000000	     -5.59935305	     -3.04285339	    -27.04077544	     -0.78881673	      0.85277900	     -0.33750490	     34.28942654	     -0.67604392	     -0.03457920	     -8.42522537	      3.63755781	      5.88756673	     -9.64988234	     -3.23539544	      4.66695971	    -13.18047526	     28.63168535	     -4.71572534	     -1.24366350	      4.73523752	      5.13937433
      1.70000000	     -5.63431689	     -2.83249484	    -26.83342844	     -0.78424569	      0.85096137	     -0.33433449	     34.28958064	     -0.85023839	     -0.21065176	     -8.06229917	      3.64192074	      5.98632657	     -9.95393603	     -3.17000707	      4.84139196	    -13.08678911	     28.80603972	     -4.59293889	     -1.10835806	      4.63227933	      4.95110618
      1.71000000	     -5.68069364	     -2.60621856	    -26.61503935	     -0.77959400	      0.84911887	     -0.33107268	     34.28343283	     -1.02733805	     -0.41363232	     -7.71605313	      3.66566130	      6.05050181	    -10.25370597	     -3.10401392	      5.04119613	    -12.98180621	     28.95037421	     -4.47819255	     -0.96088786	      4.51568663	      4.76460758
      1.72000000	     -5.74381698	     -2.37464387	    -26.39246965	     -0.77484082	      0.84725190	     -0.32770293	     34.27358189	     -1.19350392	     -0.63677535	     -7.40395977	      3.72498075	      6.10639044	    -10.55751820	     -3.05082377	      5.24456703	    -12.85252745	     29.06754054	     -4.35144696	     -0.79839001	      4.40367981	      4.57333148
      1.73000000	     -5.82061693	     -2.13605874	    -26.16919137	     -0.76999267	      0.84536950	     -0.32422140	     34.25702043	     -1.34826939	     -0.86928156	     -7.12790875	      3.79943162	      6.14461941	    -10.86187618	     -3.00598268	      5.44799509	    -12.71058206	     29.15040255	     -4.21246336	     -0.62502001	      4.29236435	      4.39045563
      1.74000000	     -5.91280906	     -1.89190274	    -25.94955613	     -0.76505732	      0.84348056	     -0.32059890	     34.23260901	     -1.48505601	     -1.09361745	     -6.89048761	      3.87642552	      6.15502979	    -11.16623380	     -2.97304728	      5.65571917	    -12.55642138	     29.19981689	     -4.06172564	     -0.44022606	      4.18096731	      4.22007574
      1.75000000	     -6.02063519	     -1.64551395	    -25.73296823	     -0.76002241	      0.84159330	     -0.31684989	     34.20103545	     -1.60331071	     -1.29977061	     -6.69963387	      3.93349531	      6.12955743	    -11.46923018	     -2.95377487	      5.85729911	    -12.39430182	     29.21314058	     -3.89734360	     -0.24495788	      4.07589402	      4.06867250
      1.76000000	     -6.14569306	     -1.39819910	    -25.52293532	     -0.75490507	      0.83972168	     -0.31295155	     34.16527329	     -1.69745061	     -1.47900653	     -6.55739460	      3.93918602	      6.06320420	    -11.76740799	     -2.95099673	      6.05968732	    -12.22890535	     29.18443028	     -3.72400912	     -0.04013594	      3.97567447	      3.93871376
      1.77000000	     -6.28868300	     -1.15693920	    -25.31643721	     -0.74970700	      0.83788422	     -0.30891150	     34.12729416	     -1.76486722	     -1.62378568	     -6.46961135	      3.86638774	      5.94024620	    -12.05738548	     -2.97245134	      6.26234851	    -12.06910432	     29.11392919	     -3.52122631	      0.17067570	      3.88909451	      3.82270461
      1.78000000	     -6.45605394	     -0.92597637	    -25.11876986	     -0.74443066	      0.83609790	     -0.30472728	     34.09460457	     -1.79879618	     -1.72427903	     -6.43419679	      3.67366440	      5.75465455	    -12.33293492	     -3.02344591	      6.46283507	    -11.91775281	     28.99853163	     -3.29506790	      0.39227344	      3.82648850	      3.72769336
      1.79000000	     -6.64828934	     -0.72470654	    -24.94462092	     -0.73911674	      0.83438726	     -0.30036366	     34.09131928	     -1.77330087	     -1.79559614	     -6.49532291	      3.32164589	      5.40973662	    -12.59866302	     -3.12271830	      6.63316941	    -11.78346578	     28.86542330	     -2.97172081	      0.61097763	      3.80358291	      3.67605255
      1.80000000	     -6.85900436	     -0.53798030	    -24.77158600	     -0.73375965	      0.83279962	     -0.29588874	     34.10272693	     -1.72418265	     -1.82806893	     -6.61013492	      2.77369753	      5.12832200	    -12.83850179	     -3.25009961	      6.82669801	    -11.68261048	     28.66110656	     -2.73467858	      0.82654121	      3.80440937	      3.62553171
      1.81000000	     -7.10047720	     -0.39524326	    -24.62326284	     -0.72836875	      0.83135345	     -0.29126065	     34.15496483	     -1.60963575	     -1.83704938	     -6.81765587	      2.04964291	      4.78464263	    -13.05752894	     -3.43625785	      7.00529389	    -11.61661532	     28.39320261	     -2.46424957	      1.03862065	      3.86755699	      3.62072690
      1.82000000	     -7.36256515	     -0.29110471	    -24.49797335	     -0.72294583	      0.83009034	     -0.28648662	     34.25520761	     -1.44362726	     -1.84191204	     -7.13078517	      1.15994270	      4.41724895	    -13.26606033	     -3.67156115	      7.16170683	    -11.57234719	     28.06306951	     -2.17554783	      1.23917239	      3.98173115	      3.62788451
